<svg xmlns="http://www.w3.org/2000/svg" viewBox="0 0 121.53 107.64"><defs><style>.cls-1{fill:#5a12fa;}.cls-2{fill:#f6f4f3;}</style></defs><g id="Capa_2" data-name="Capa 2"><g id="RECURSOS"><rect class="cls-1" x="6.95" y="-6.95" width="107.64" height="121.53" rx="13.08" transform="translate(114.59 -6.95) rotate(90)"/><path class="cls-2" d="M56.82,50.33a2.23,2.23,0,0,1-2.23-2.23V21a.12.12,0,0,0-.1-.12,6.26,6.26,0,0,0-1.25.13.84.84,0,0,0-.47.44L40,48.73a2.11,2.11,0,0,1-3.88-.07L23.28,21.45a.85.85,0,0,0-.54-.46h0a8.05,8.05,0,0,0-1.19-.11h0a.1.1,0,0,0-.09.1V48.1a2.23,2.23,0,0,1-2.23,2.23h-3A2.23,2.23,0,0,1,14,48.1V15.59a2.23,2.23,0,0,1,2.22-2.22h5.57a7.33,7.33,0,0,1,.78,0l.58,0c.33,0,.59.06.8.1l.61.12c.28.06.52.11.72.17a5.82,5.82,0,0,1,.7.24,7.4,7.4,0,0,1,.69.34,6.41,6.41,0,0,1,2.9,2.86l8.52,17.34,8.47-17.36a6.12,6.12,0,0,1,2.91-2.84,3.83,3.83,0,0,1,1-.43l.69-.21a6.41,6.41,0,0,1,1-.22l.78-.1.93-.06.79,0h5.29a2.22,2.22,0,0,1,2.22,2.22V48.1a2.23,2.23,0,0,1-2.23,2.23Z"/><path class="cls-2" d="M61,15.59V48.1a1.17,1.17,0,0,1-1.17,1.17h-3a1.17,1.17,0,0,1-1.17-1.17V21a1.17,1.17,0,0,0-1.21-1.17,6.51,6.51,0,0,0-1.53.18,2,2,0,0,0-1.1,1L39,48.28a1.06,1.06,0,0,1-2,0L24.24,21a1.81,1.81,0,0,0-1.1-1,6.64,6.64,0,0,0-1.55-.18A1.15,1.15,0,0,0,20.4,21V48.1a1.17,1.17,0,0,1-1.17,1.17h-3A1.17,1.17,0,0,1,15,48.1V15.59a1.17,1.17,0,0,1,1.16-1.17h5.57a5.47,5.47,0,0,1,.67,0l.62.05c.27,0,.48,0,.65.07l.62.13.65.15a4,4,0,0,1,.58.2,3.89,3.89,0,0,1,.54.27,5.53,5.53,0,0,1,2.5,2.39l9.1,18.55a.41.41,0,0,0,.74,0l9-18.55A5.16,5.16,0,0,1,50,15.32a2.52,2.52,0,0,1,.72-.32l.72-.23a5.72,5.72,0,0,1,.82-.17l.75-.1c.15,0,.43,0,.85-.05l.75,0h5.29A1.17,1.17,0,0,1,61,15.59Z"/><path class="cls-2" d="M23.11,94.27a9,9,0,0,1-6-2.23A8.88,8.88,0,0,1,14,85.14V66.32a9,9,0,0,1,2.22-6,8.9,8.9,0,0,1,6.91-3.16H56a2.23,2.23,0,0,1,2.23,2.23v3.08A2.24,2.24,0,0,1,56,64.71H23.27a2.36,2.36,0,0,0-1.39.53,1.42,1.42,0,0,0-.42,1.05V85.14a1.66,1.66,0,0,0,1.63,1.63H56A2.23,2.23,0,0,1,58.25,89v3A2.23,2.23,0,0,1,56,94.27Z"/><path class="cls-2" d="M21.2,87a2.55,2.55,0,0,0,1.89.8H56A1.17,1.17,0,0,1,57.2,89v3A1.17,1.17,0,0,1,56,93.21H23.12a8,8,0,0,1-5.3-2A7.83,7.83,0,0,1,15,85.14V66.32A8,8,0,0,1,17,61a7.87,7.87,0,0,1,6.12-2.81H56a1.18,1.18,0,0,1,1.18,1.18v3.08A1.18,1.18,0,0,1,56,63.65H23.27a3.44,3.44,0,0,0-2.15.85,2.5,2.5,0,0,0-.72,1.79V85.14A2.59,2.59,0,0,0,21.2,87Z"/><path class="cls-2" d="M80.06,60.76a2.26,2.26,0,0,1-2-1.28l-1.59-3.34a2.27,2.27,0,0,1,0-1.84,2.18,2.18,0,0,1,1.34-1.25l17.94-6.21a2.34,2.34,0,0,1,.74-.12,2.28,2.28,0,0,1,2,1.28l1.64,3.46a2.26,2.26,0,0,1-1.31,3.1l-18,6.08A2.18,2.18,0,0,1,80.06,60.76Z"/><path class="cls-2" d="M77.4,55.69,79,59a1.19,1.19,0,0,0,1.45.61l18-6.08a1.2,1.2,0,0,0,.69-1.64l-1.65-3.45A1.19,1.19,0,0,0,96,47.85l-17.94,6.2A1.2,1.2,0,0,0,77.4,55.69Z"/><path class="cls-2" d="M105.63,52.12a2.27,2.27,0,0,1-2-1.32l-.07-.14h0l-.32-.63L91,22.65a1.57,1.57,0,0,0-.94-.87,4.78,4.78,0,0,0-3.92,0,1.58,1.58,0,0,0-.92.82l-.26.68h-.09l-11.64,26a2.24,2.24,0,0,1-2.06,1.34H67.75a2.25,2.25,0,0,1-2.06-3.18L78.28,19.36l.12-.25a10.16,10.16,0,0,1,3.12-3.7,10,10,0,0,1,4.3-1.85,13.18,13.18,0,0,1,4.46,0,10.17,10.17,0,0,1,4.28,1.85,10.72,10.72,0,0,1,3.15,3.69l.11.22L110.6,48A2.24,2.24,0,0,1,109.26,51l-2.91,1A2.18,2.18,0,0,1,105.63,52.12Z"/><path class="cls-2" d="M84.14,22.21h0a2.69,2.69,0,0,1,1.49-1.41,6,6,0,0,1,4.78,0,2.66,2.66,0,0,1,1.49,1.41l10.47,23.44h0l1.76,3.94h0l.35.77A1.18,1.18,0,0,0,106,51l2.91-1a1.2,1.2,0,0,0,.71-1.61l-2-4.55h0L96.87,19.79l-.1-.2a9.62,9.62,0,0,0-2.84-3.32,9.17,9.17,0,0,0-3.83-1.66,12.27,12.27,0,0,0-4.1,0,9.3,9.3,0,0,0-6.65,5l-.1.2L66.66,47.92a1.18,1.18,0,0,0,1.08,1.67h3.39a1.19,1.19,0,0,0,1.09-.7Z"/><path class="cls-2" d="M88.7,94.27a12.91,12.91,0,0,1-2.23-.19,10.13,10.13,0,0,1-4.27-1.85A10.74,10.74,0,0,1,79,88.54l-.11-.22L66.15,59.67a2.26,2.26,0,0,1,0-1.82,2.23,2.23,0,0,1,1.34-1.23l2.91-1a2.25,2.25,0,0,1,2.77,1.2l.07.14h0l.32.63L85.79,85a1.62,1.62,0,0,0,.95.87,4.87,4.87,0,0,0,3.91,0,1.58,1.58,0,0,0,.92-.82l.27-.68h.09l11.63-26A2.25,2.25,0,0,1,105.62,57H109a2.25,2.25,0,0,1,2,3.18L98.47,88.28l-.11.24a10.3,10.3,0,0,1-3.12,3.71,10.2,10.2,0,0,1-4.3,1.85A13.11,13.11,0,0,1,88.7,94.27Z"/><path class="cls-2" d="M92.62,85.43h-.05a2.66,2.66,0,0,1-1.49,1.41,6,6,0,0,1-4.78,0,2.64,2.64,0,0,1-1.48-1.41L74.35,62h0l-1.76-3.94h0l-.35-.77a1.17,1.17,0,0,0-1.46-.63l-2.91,1a1.18,1.18,0,0,0-.7,1.61l2,4.55h0L79.88,87.84l.1.21a9.74,9.74,0,0,0,2.85,3.32A9.08,9.08,0,0,0,86.65,93a12.33,12.33,0,0,0,4.11,0,9.26,9.26,0,0,0,6.64-5l.1-.21,12.59-28.12A1.18,1.18,0,0,0,109,58.05h-3.39a1.17,1.17,0,0,0-1.08.7Z"/></g></g></svg>