<svg xmlns="http://www.w3.org/2000/svg" viewBox="0 0 121.53 107.64"><defs><style>.cls-1{fill:none;}.cls-2{fill:#f6f4f3;}.cls-3{fill:#5a12fa;}</style></defs><g id="Capa_2" data-name="Capa 2"><g id="RECURSOS"><rect class="cls-1" x="6.95" y="-6.95" width="107.64" height="121.53" rx="6" transform="translate(114.59 -6.95) rotate(90)"/><path class="cls-2" d="M55.89,50.92a2,2,0,0,1-2-2V25.64a5.54,5.54,0,0,0-1,.1.62.62,0,0,0-.35.33l-11,23.42a1.78,1.78,0,0,1-1.74,1.13A1.82,1.82,0,0,1,38,49.42L27,26.07a.67.67,0,0,0-.41-.35h0a8.6,8.6,0,0,0-1-.08V48.91a2,2,0,0,1-2,2H21a2,2,0,0,1-2-2V21a2,2,0,0,1,2-2h4.78a5.73,5.73,0,0,1,.69,0l.49,0a3.86,3.86,0,0,1,.69.08l.52.1.64.15a4.94,4.94,0,0,1,.61.21,5.58,5.58,0,0,1,.6.31,5.57,5.57,0,0,1,2.53,2.48l7.22,14.71L47,22.39a5.24,5.24,0,0,1,2.53-2.48,3.24,3.24,0,0,1,.84-.38c.23-.06.43-.13.59-.18a4.72,4.72,0,0,1,.88-.19l.67-.09c.14,0,.41,0,.8-.05L54,19h4.55a2,2,0,0,1,2,2V48.91a2,2,0,0,1-2,2Z"/><path class="cls-2" d="M59.51,21V48.91a1,1,0,0,1-1,1H55.89a1,1,0,0,1-1-1V25.64a1,1,0,0,0-1-1,5.75,5.75,0,0,0-1.32.15,1.74,1.74,0,0,0-.94.86l-11,23.41a.83.83,0,0,1-.84.56.82.82,0,0,1-.83-.56l-11-23.41a1.58,1.58,0,0,0-.94-.86,6,6,0,0,0-1.33-.15,1,1,0,0,0-1,1V48.91a1,1,0,0,1-1,1H21a1,1,0,0,1-1-1V21a1,1,0,0,1,1-1h4.78l.58,0a5.28,5.28,0,0,0,.53,0,5.3,5.3,0,0,1,.56.07l.53.11.56.12a3.68,3.68,0,0,1,.49.18,2.93,2.93,0,0,1,.47.23,4.69,4.69,0,0,1,2.14,2.05l7.82,15.93a.35.35,0,0,0,.63,0l7.77-15.93A4.5,4.5,0,0,1,50,20.77a2.37,2.37,0,0,1,.62-.28l.62-.19a3.91,3.91,0,0,1,.71-.15l.64-.09.73,0L54,20h4.55A1,1,0,0,1,59.51,21Z"/><path class="cls-2" d="M27,88.64a7.83,7.83,0,0,1-5.21-1.94,7.73,7.73,0,0,1-2.74-6V64.55a7.87,7.87,0,0,1,1.93-5.21,7.74,7.74,0,0,1,6-2.75H55.2a2,2,0,0,1,2,2v2.65a2,2,0,0,1-2,2H27.09a2.06,2.06,0,0,0-1.13.42,1.18,1.18,0,0,0-.34.85V80.7A1.35,1.35,0,0,0,26.93,82H55.2a2,2,0,0,1,2,2v2.61a2,2,0,0,1-2,2Z"/><path class="cls-2" d="M25.31,82.33a2.2,2.2,0,0,0,1.62.69H55.2a1,1,0,0,1,1,1v2.61a1,1,0,0,1-1,1H27A6.86,6.86,0,0,1,22.41,86,6.76,6.76,0,0,1,20,80.7V64.55A6.88,6.88,0,0,1,21.68,60a6.76,6.76,0,0,1,5.25-2.41H55.2a1,1,0,0,1,1,1v2.65a1,1,0,0,1-1,1H27.09a3,3,0,0,0-1.85.73,2.15,2.15,0,0,0-.62,1.54V80.7A2.22,2.22,0,0,0,25.31,82.33Z"/><path class="cls-3" d="M75.91,59.77a2,2,0,0,1-1.82-1.14l-1.34-2.84a2,2,0,0,1,0-1.64A2,2,0,0,1,73.9,53l15.26-5.28a2.17,2.17,0,0,1,.66-.11,2,2,0,0,1,1.81,1.15L93,51.73a2,2,0,0,1,0,1.64,2,2,0,0,1-1.21,1.12L76.55,59.67a2,2,0,0,1-.64.1Z"/><path class="cls-3" d="M73.65,55.36,75,58.2a1,1,0,0,0,1.23.52l15.31-5.17a1,1,0,0,0,.59-1.39l-1.4-2.94a1,1,0,0,0-1.24-.52L74.23,54A1,1,0,0,0,73.65,55.36Z"/><path class="cls-3" d="M97.65,52.42a2,2,0,0,1-1.83-1.17l0-.07h0l-.3-.59L85.09,27.3c0-.14-.17-.43-.75-.69a4.08,4.08,0,0,0-3.26,0c-.58.26-.7.55-.73.65l-.25.64H80L70.15,50a2,2,0,0,1-1.83,1.19H65.43a2,2,0,0,1-1.83-2.83L74.31,24.43l.1-.2a8.87,8.87,0,0,1,6.38-4.78,10.81,10.81,0,0,1,3.82,0A8.65,8.65,0,0,1,88.29,21,9.24,9.24,0,0,1,91,24.21l.1.19L102,48.76a2,2,0,0,1-1.19,2.72l-2.48.84A2,2,0,0,1,97.65,52.42Z"/><path class="cls-3" d="M79.37,26.9h0a2.22,2.22,0,0,1,1.27-1.2,5,5,0,0,1,4.06,0A2.19,2.19,0,0,1,86,26.9l8.9,19.93h0l1.5,3.35h0l.29.65a1,1,0,0,0,1.24.54l2.48-.84a1,1,0,0,0,.6-1.36L99.32,45.3h0L90.2,24.84l-.08-.17a8.16,8.16,0,0,0-2.42-2.82,7.63,7.63,0,0,0-3.26-1.42,10.17,10.17,0,0,0-3.48,0,7.6,7.6,0,0,0-3.28,1.42,7.72,7.72,0,0,0-2.37,2.82l-.09.17L64.51,48.76a1,1,0,0,0,.92,1.42h2.89a1,1,0,0,0,.92-.6Z"/><path class="cls-3" d="M83.25,88.27a11.3,11.3,0,0,1-1.91-.17,8.62,8.62,0,0,1-3.67-1.59A9.3,9.3,0,0,1,75,83.35l-.1-.19L64,58.79a2,2,0,0,1,1.19-2.72l2.47-.84a2.05,2.05,0,0,1,.65-.1,2,2,0,0,1,1.82,1.17l0,.07h0l.29.59,10.4,23.29a1.22,1.22,0,0,0,.76.69,3.94,3.94,0,0,0,1.63.34,3.89,3.89,0,0,0,1.62-.34c.59-.26.7-.55.74-.65l.25-.64h.08l9.87-22.09a2,2,0,0,1,1.83-1.19h2.88a2,2,0,0,1,1.84,2.83L91.65,83.12l-.11.21a8.58,8.58,0,0,1-2.67,3.18,8.68,8.68,0,0,1-3.7,1.59A11.32,11.32,0,0,1,83.25,88.27Z"/><path class="cls-3" d="M86.59,80.65h0a2.2,2.2,0,0,1-1.26,1.2,5,5,0,0,1-4.07,0A2.2,2.2,0,0,1,80,80.65l-8.9-19.93h0l-1.5-3.35h0l-.3-.65A1,1,0,0,0,68,56.18L65.51,57a1,1,0,0,0-.6,1.36l1.72,3.87h0l9.13,20.46.08.17a8.16,8.16,0,0,0,2.42,2.82,7.59,7.59,0,0,0,3.25,1.42,10.23,10.23,0,0,0,3.49,0,7.9,7.9,0,0,0,5.65-4.24l.09-.17,10.7-23.92a1,1,0,0,0-.92-1.42H97.64a1,1,0,0,0-.92.6Z"/></g></g></svg>