<svg xmlns="http://www.w3.org/2000/svg" viewBox="0 0 121.53 107.64"><defs><style>.cls-1{fill:#f6f4f3;}.cls-2{fill:#292b29;}.cls-3{fill:#5a12fa;}</style></defs><g id="Capa_2" data-name="Capa 2"><g id="RECURSOS"><rect class="cls-1" x="6.95" y="-6.95" width="107.64" height="121.53" rx="13.08" transform="translate(114.59 -6.95) rotate(90)"/><path class="cls-2" d="M55.09,50.33a2.23,2.23,0,0,1-2.23-2.23V21a.12.12,0,0,0-.11-.12,5.9,5.9,0,0,0-1.24.13.87.87,0,0,0-.48.44L38.22,48.73A2,2,0,0,1,36.29,50a2,2,0,0,1-2-1.32L21.55,21.45A.87.87,0,0,0,21,21h0a8.59,8.59,0,0,0-1.19-.11h0a.11.11,0,0,0-.1.1V48.1a2.23,2.23,0,0,1-2.23,2.23h-3a2.23,2.23,0,0,1-2.23-2.23V15.59a2.23,2.23,0,0,1,2.23-2.22H20a7.68,7.68,0,0,1,.79,0c.14,0,.33,0,.58,0s.59.06.79.1l.61.12c.28.06.52.11.73.17a6.49,6.49,0,0,1,.7.24,7.18,7.18,0,0,1,.68.34,6.49,6.49,0,0,1,2.91,2.86l8.51,17.34,8.48-17.36a6.09,6.09,0,0,1,2.9-2.84,3.83,3.83,0,0,1,1-.43l.69-.21a6.69,6.69,0,0,1,1-.22l.78-.1.93-.06.79,0h5.29a2.21,2.21,0,0,1,2.22,2.22V48.1a2.23,2.23,0,0,1-2.23,2.23Z"/><path class="cls-2" d="M59.3,15.59V48.1a1.17,1.17,0,0,1-1.18,1.17h-3a1.17,1.17,0,0,1-1.18-1.17V21a1.16,1.16,0,0,0-1.2-1.17,6.61,6.61,0,0,0-1.54.18,2,2,0,0,0-1.1,1L37.26,48.28a1,1,0,0,1-1.94,0L22.5,21a1.79,1.79,0,0,0-1.09-1,6.72,6.72,0,0,0-1.55-.18A1.16,1.16,0,0,0,18.66,21V48.1a1.17,1.17,0,0,1-1.17,1.17h-3a1.17,1.17,0,0,1-1.17-1.17V15.59a1.17,1.17,0,0,1,1.17-1.17H20a5.47,5.47,0,0,1,.67,0l.63.05c.26,0,.48,0,.64.07l.63.13.65.15a3.91,3.91,0,0,1,.57.2,4,4,0,0,1,.55.27,5.46,5.46,0,0,1,2.49,2.39L36,36.26a.4.4,0,0,0,.73,0l9.06-18.55a5.17,5.17,0,0,1,2.49-2.39A2.65,2.65,0,0,1,49,15l.72-.23a6.23,6.23,0,0,1,.83-.17l.75-.1c.15,0,.43,0,.84-.05l.75,0h5.29A1.17,1.17,0,0,1,59.3,15.59Z"/><path class="cls-2" d="M21.38,94.27a9,9,0,0,1-6-2.23,8.88,8.88,0,0,1-3.16-6.9V66.32a9,9,0,0,1,2.22-6,8.92,8.92,0,0,1,6.92-3.16H54.28a2.24,2.24,0,0,1,2.24,2.23v3.08a2.25,2.25,0,0,1-2.24,2.24H21.53a2.39,2.39,0,0,0-1.39.53,1.46,1.46,0,0,0-.42,1.05V85.14a1.53,1.53,0,0,0,.49,1.14,1.5,1.5,0,0,0,1.15.49H54.28A2.24,2.24,0,0,1,56.52,89v3a2.24,2.24,0,0,1-2.24,2.23Z"/><path class="cls-2" d="M19.46,87a2.55,2.55,0,0,0,1.9.8H54.28A1.17,1.17,0,0,1,55.46,89v3a1.17,1.17,0,0,1-1.18,1.17H21.38a8,8,0,0,1-5.3-2,7.83,7.83,0,0,1-2.8-6.11V66.32a8,8,0,0,1,2-5.3,7.84,7.84,0,0,1,6.12-2.81H54.28a1.18,1.18,0,0,1,1.18,1.18v3.08a1.18,1.18,0,0,1-1.18,1.18H21.53a3.44,3.44,0,0,0-2.15.85,2.5,2.5,0,0,0-.72,1.79V85.14A2.59,2.59,0,0,0,19.46,87Z"/><path class="cls-3" d="M78.33,60.76a2.26,2.26,0,0,1-2-1.28L74.7,56.14a2.27,2.27,0,0,1,0-1.84A2.23,2.23,0,0,1,76,53.05l18-6.21A2.27,2.27,0,0,1,96.72,48l1.64,3.46a2.23,2.23,0,0,1,0,1.84,2.26,2.26,0,0,1-1.36,1.26l-18,6.08A2.27,2.27,0,0,1,78.33,60.76Z"/><path class="cls-3" d="M75.67,55.69,77.25,59a1.2,1.2,0,0,0,1.46.61l18-6.08a1.19,1.19,0,0,0,.69-1.64l-1.64-3.45a1.19,1.19,0,0,0-1.46-.61l-18,6.2A1.19,1.19,0,0,0,75.67,55.69Z"/><path class="cls-3" d="M103.9,52.12a2.27,2.27,0,0,1-2.06-1.32l-.06-.14h0l-.31-.63L89.23,22.65a1.59,1.59,0,0,0-1-.87,4.76,4.76,0,0,0-3.91,0,1.6,1.6,0,0,0-.93.82l-.26.68h-.09l-11.63,26a2.27,2.27,0,0,1-2.06,1.34H66A2.26,2.26,0,0,1,64,47.48L76.54,19.36l.12-.25a10.36,10.36,0,0,1,3.12-3.7,10.07,10.07,0,0,1,4.3-1.85,13.11,13.11,0,0,1,2.24-.19,12.72,12.72,0,0,1,2.22.19,10.17,10.17,0,0,1,4.28,1.85A10.74,10.74,0,0,1,96,19.1l.11.22L108.86,48a2.26,2.26,0,0,1,0,1.82A2.23,2.23,0,0,1,107.53,51l-2.91,1A2.27,2.27,0,0,1,103.9,52.12Z"/><path class="cls-3" d="M82.4,22.21h0a2.64,2.64,0,0,1,1.48-1.41,6,6,0,0,1,4.79,0,2.64,2.64,0,0,1,1.48,1.41l10.47,23.44h0l1.76,3.94h0l.35.77a1.18,1.18,0,0,0,1.46.63l2.91-1a1.18,1.18,0,0,0,.7-1.61l-2-4.55h0L95.13,19.79l-.1-.2a9.51,9.51,0,0,0-2.84-3.32,9.11,9.11,0,0,0-3.83-1.66,12.27,12.27,0,0,0-4.1,0,9.26,9.26,0,0,0-6.64,5l-.1.2L64.93,47.92A1.18,1.18,0,0,0,66,49.59H69.4a1.17,1.17,0,0,0,1.08-.7Z"/><path class="cls-3" d="M87,94.27a12.72,12.72,0,0,1-2.22-.19,10.17,10.17,0,0,1-4.28-1.85,10.74,10.74,0,0,1-3.16-3.69l-.11-.22L64.42,59.67a2.25,2.25,0,0,1,1.33-3.05l2.91-1a2.28,2.28,0,0,1,.73-.12,2.25,2.25,0,0,1,2,1.32l.06.14h0l.31.63L84.05,85a1.68,1.68,0,0,0,1,.87,4.87,4.87,0,0,0,3.91,0,1.57,1.57,0,0,0,.93-.82l.26-.68h.09l11.64-26a2.24,2.24,0,0,1,2-1.33h3.39a2.22,2.22,0,0,1,1.89,1,2.25,2.25,0,0,1,.17,2.15L96.74,88.28l-.12.24a10.33,10.33,0,0,1-7.42,5.56A13,13,0,0,1,87,94.27Z"/><path class="cls-3" d="M90.88,85.43h0a2.64,2.64,0,0,1-1.48,1.41,6,6,0,0,1-4.78,0,2.66,2.66,0,0,1-1.49-1.41L72.61,62h0l-1.76-3.94h0l-.35-.77A1.18,1.18,0,0,0,69,56.65l-2.92,1a1.19,1.19,0,0,0-.7,1.61l2,4.55h0L78.15,87.84l.1.21a9.6,9.6,0,0,0,2.84,3.32A9.11,9.11,0,0,0,84.92,93,12.27,12.27,0,0,0,89,93a9.26,9.26,0,0,0,6.64-5l.1-.21,12.6-28.12a1.19,1.19,0,0,0-1.09-1.67h-3.39a1.18,1.18,0,0,0-1.08.7Z"/></g></g></svg>