<svg xmlns="http://www.w3.org/2000/svg" xmlns:xlink="http://www.w3.org/1999/xlink" viewBox="0 0 222.98 178.97"><defs><style>.cls-1{isolation:isolate;}.cls-2{fill:#433470;}.cls-3{fill:#b39bea;}.cls-4{fill:#7851c7;}.cls-5,.cls-66{fill:#fff;}.cls-6{fill:#ffd05c;}.cls-7{fill:#efebfa;stroke:#efebfa;stroke-width:1.03px;}.cls-10,.cls-12,.cls-14,.cls-64,.cls-65,.cls-66,.cls-7{stroke-miterlimit:10;}.cls-8{fill:#f4f0ff;}.cls-9{opacity:0.2;}.cls-10,.cls-14{fill:#f7f5fd;stroke:#7f7c74;stroke-width:0.81px;}.cls-11,.cls-12,.cls-64{fill:none;}.cls-11{stroke:#7a5fc4;stroke-linecap:round;stroke-linejoin:round;stroke-width:1.62px;}.cls-12{stroke:#ffd05c;stroke-width:2.07px;}.cls-13{fill:#fffffd;}.cls-14{opacity:0.54;}.cls-15{mix-blend-mode:multiply;opacity:0.4;}.cls-16{fill:url(#linear-gradient);}.cls-17{fill:url(#linear-gradient-2);}.cls-18{fill:url(#linear-gradient-3);}.cls-19{fill:url(#linear-gradient-4);}.cls-20{fill:url(#linear-gradient-5);}.cls-21{fill:url(#linear-gradient-6);}.cls-22{fill:#261c71;}.cls-23{fill:#6853dd;}.cls-24{fill:#6650da;}.cls-25{fill:#6550d9;}.cls-26{fill:#947df0;}.cls-27{fill:#957df0;}.cls-28{fill:#a280fe;}.cls-29{fill:#9777fe;}.cls-30{fill:#a683fe;}.cls-31{fill:#f3d3fd;}.cls-32{fill:#6b56dd;}.cls-33{fill:#eecffd;}.cls-34{fill:#8e6ffe;}.cls-35{fill:#9576fe;}.cls-36{fill:#e2c1fd;}.cls-37{fill:#b28ffe;}.cls-38{fill:#1f1567;}.cls-39{fill:#1d1467;}.cls-40{fill:#060433;}.cls-41{fill:#a180fe;}.cls-42{fill:#1b1267;}.cls-43{fill:#070533;}.cls-44{fill:#c9a4fa;}.cls-45{fill:#896bfe;}.cls-46{fill:#fcf8f1;}.cls-47{fill:#624cd8;}.cls-48{fill:#181015;}.cls-49{fill:#c49efe;}.cls-50{fill:#040231;}.cls-51{fill:#c8a4fe;}.cls-52{fill:#8669fe;}.cls-53{fill:#fdf8f1;}.cls-54{fill:#614bd7;}.cls-55{fill:#170f16;}.cls-56{fill:#c19bfe;}.cls-57{fill:#050336;}.cls-58{fill:#8c6dfd;}.cls-59{fill:#654dda;}.cls-60{fill:#c2a0fe;}.cls-61{fill:#1b1067;}.cls-62{fill:#6c53e2;}.cls-63{fill:#c5a2fe;}.cls-64{stroke:#1b1267;stroke-width:3px;}.cls-65{fill:#d1b5e5;}.cls-65,.cls-66{stroke:#5f2fb0;stroke-width:2.3px;}</style><linearGradient id="linear-gradient" x1="83.27" y1="79.96" x2="23.67" y2="79.96" gradientUnits="userSpaceOnUse"><stop offset="0" stop-color="#b39bea"/><stop offset="0.19" stop-color="#b8a2eb"/><stop offset="0.46" stop-color="#c6b4ef"/><stop offset="0.78" stop-color="#dcd2f5"/><stop offset="1" stop-color="#efebfa"/></linearGradient><linearGradient id="linear-gradient-2" x1="83.27" y1="88.5" x2="23.67" y2="88.5" xlink:href="#linear-gradient"/><linearGradient id="linear-gradient-3" x1="83.27" y1="97.04" x2="23.67" y2="97.04" xlink:href="#linear-gradient"/><linearGradient id="linear-gradient-4" x1="83.27" y1="105.58" x2="23.67" y2="105.58" xlink:href="#linear-gradient"/><linearGradient id="linear-gradient-5" x1="83.27" y1="114.12" x2="23.67" y2="114.12" xlink:href="#linear-gradient"/><linearGradient id="linear-gradient-6" x1="83.27" y1="126" x2="23.67" y2="126" xlink:href="#linear-gradient"/></defs><g class="cls-1"><g id="Capa_2" data-name="Capa 2"><g id="Capa_1-2" data-name="Capa 1"><rect class="cls-2" x="0.13" y="9.88" width="74.88" height="40.88" rx="14.73" transform="translate(-9.75 20.74) rotate(-27.46)"/><rect class="cls-3" x="-1.61" y="10.31" width="74.88" height="33.33" rx="14.58" transform="translate(-8.4 19.56) rotate(-27.46)"/><circle class="cls-4" cx="53.11" cy="17.34" r="11.38" transform="translate(8.62 51.14) rotate(-55.31)"/><path class="cls-5" d="M47.34,18l1.85-1a1.2,1.2,0,0,0,.51-1.61l-1-1.85a1.21,1.21,0,0,1,.52-1.62l1.63-.85a1.21,1.21,0,0,1,1.62.51l1,1.85a1.19,1.19,0,0,0,1.61.51l1.85-1a1.21,1.21,0,0,1,1.62.51l.85,1.64a1.19,1.19,0,0,1-.51,1.61L57,17.7a1.18,1.18,0,0,0-.51,1.61l1,1.85A1.21,1.21,0,0,1,57,22.78l-1.64.85a1.2,1.2,0,0,1-1.61-.51l-1-1.85a1.2,1.2,0,0,0-1.62-.51l-1.85,1a1.21,1.21,0,0,1-1.62-.51l-.85-1.64A1.19,1.19,0,0,1,47.34,18Z"/><circle class="cls-4" cx="18.02" cy="35.58" r="11.38" transform="translate(-18.48 51.66) rotate(-86.93)"/><rect class="cls-5" x="13.79" y="29.48" width="4.37" height="4.37" rx="1.91" transform="translate(44.75 52.38) rotate(152.54)"/><rect class="cls-5" x="17.87" y="37.32" width="4.37" height="4.37" rx="1.91" transform="matrix(-0.89, 0.46, -0.46, -0.89, 56.07, 65.31)"/><rect class="cls-5" x="19.76" y="31.36" width="4.37" height="4.37" rx="1.91" transform="translate(2.29 68.48) rotate(-117.46)"/><rect class="cls-5" x="11.91" y="35.44" width="4.37" height="4.37" rx="1.91" transform="matrix(-0.46, -0.89, 0.89, -0.46, -12.79, 67.48)"/><path class="cls-2" d="M33.82,50.43,56.17,38.81l-3-5.73a6,6,0,0,0-8.08-2.55L33.39,36.62a6,6,0,0,0-2.55,8.08Z"/><path class="cls-5" d="M41.83,36.38A5.08,5.08,0,1,0,44,29.53,5.07,5.07,0,0,0,41.83,36.38Z"/><path class="cls-5" d="M31.06,42a5.08,5.08,0,1,0,2.17-6.85A5.08,5.08,0,0,0,31.06,42Z"/><rect class="cls-4" x="25.97" y="15.71" width="12.86" height="9.34" rx="1.69" transform="translate(-5.75 17.24) rotate(-27.46)"/><circle class="cls-6" cx="53.09" cy="146.24" r="6.68"/><path class="cls-7" d="M210.79,11.39a6.68,6.68,0,1,1-6.68-6.68A6.68,6.68,0,0,1,210.79,11.39Z"/><path class="cls-8" d="M193.19,29a17.56,17.56,0,0,1-27.94,11,18,18,0,0,1-3.55-3.63,17.63,17.63,0,0,1-3.12-7.44,17,17,0,0,1-.12-4.95c0-.31.08-.62.13-.94a18,18,0,0,1,.68-2.67,17.56,17.56,0,0,1,19.6-11.64,17.24,17.24,0,0,1,1.79.4h0A17.54,17.54,0,0,1,193.19,29Z"/><path class="cls-3" d="M201.24,37.94a3.92,3.92,0,0,0-.23-1.3,8.14,8.14,0,0,0-1-1.93,19.42,19.42,0,0,0-2.53-2.9,51.06,51.06,0,0,0-4.17-3.54,16.47,16.47,0,0,1-.49,2.4,35.29,35.29,0,0,1,2.9,2.83,16.25,16.25,0,0,1,2,2.66,5.49,5.49,0,0,1,.57,1.3c.11.4,0,.62,0,.64a2.13,2.13,0,0,1-.58.22,6.51,6.51,0,0,1-1.37.06,16.51,16.51,0,0,1-3.18-.62,33.44,33.44,0,0,1-3.27-1.15c-1.06-.43-2.1-.89-3.13-1.39-4.17-2-8.27-4.24-12.4-6.37a121.79,121.79,0,0,1-11.92-7.17c-1-.68-2-1.38-2.89-2.11s-1.66-1.35-2.43-2.06a16.57,16.57,0,0,1-2.1-2.24,6.43,6.43,0,0,1-.59-1l-.21.08h0c0,.08-.14.12-.15.11s0-.06.15-.11,0,0,0,0,.1-.24.12-.22.05.06.1.17h0a5.12,5.12,0,0,1,1-.17,16.71,16.71,0,0,1,3.19.14c1.2.17,2.42.4,3.65.7A16.63,16.63,0,0,1,165,12.3a45.7,45.7,0,0,0-5.63-1.81,19.55,19.55,0,0,0-4-.59,8.12,8.12,0,0,0-2.38.22,4.66,4.66,0,0,0-1.45.6,4.17,4.17,0,0,0-1.4,1.43,4.34,4.34,0,0,0-.54,2,6.3,6.3,0,0,0,.2,1.6,9.9,9.9,0,0,0,1,2.26,21.83,21.83,0,0,0,2.46,3.32,48.26,48.26,0,0,0,5.1,4.84l.47.39a81.5,81.5,0,0,0,12.4,8.22A56.72,56.72,0,0,0,185,40.21l.92.22h0a53.15,53.15,0,0,0,6.52,1.15,22.48,22.48,0,0,0,4,.13,9.19,9.19,0,0,0,2.2-.41,4.26,4.26,0,0,0,1.21-.6,3.42,3.42,0,0,0,1.08-1.2A3.21,3.21,0,0,0,201.24,37.94Z"/><g class="cls-9"><path class="cls-10" d="M222.57,71.92V145c0,4.49-3.89,7.81-8.62,7.41l-93.3-7.95c-3.12-.27-5.61-3.38-5.61-7V79.41c0-3.58,2.49-6.69,5.61-7l93.3-8C218.68,64.1,222.57,67.42,222.57,71.92Z"/></g><path class="cls-8" d="M222.57,71.92v1L115,80.21v-.8c0-3.58,2.49-6.69,5.61-7l93.3-8C218.68,64.1,222.57,67.42,222.57,71.92Z"/><path class="cls-5" d="M124.08,75.88A2.08,2.08,0,0,1,122.33,78a1.73,1.73,0,0,1-1.74-1.87A2.08,2.08,0,0,1,122.33,74,1.72,1.72,0,0,1,124.08,75.88Z"/><path class="cls-5" d="M130.35,75.4a2.11,2.11,0,0,1-1.81,2.17,1.76,1.76,0,0,1-1.78-1.9,2.11,2.11,0,0,1,1.78-2.16A1.75,1.75,0,0,1,130.35,75.4Z"/><path class="cls-5" d="M136.8,74.91a2.15,2.15,0,0,1-1.85,2.2,1.79,1.79,0,0,1-1.84-1.92A2.15,2.15,0,0,1,135,73,1.78,1.78,0,0,1,136.8,74.91Z"/><path class="cls-6" d="M156.68,95.59l16.93,9.34a2.57,2.57,0,0,1,0,4.46l-16.93,9.42a2.33,2.33,0,0,1-3.38-2.21V97.82A2.35,2.35,0,0,1,156.68,95.59Z"/><path class="cls-8" d="M213.34,152.32l-92.28-7.85c-3.35-.29-6-3.63-6-7.46v-4.95l107.53,6.1v6.21C222.57,149.2,218.4,152.76,213.34,152.32Z"/><line class="cls-11" x1="129.39" y1="139.03" x2="214.28" y2="145.05"/><line class="cls-12" x1="120.31" y1="138.38" x2="137.92" y2="139.63"/><path class="cls-6" d="M141.67,139.9a3.61,3.61,0,0,1-3.75,3.85,4.29,4.29,0,0,1-3.68-4.38,3.62,3.62,0,0,1,3.68-3.86A4.28,4.28,0,0,1,141.67,139.9Z"/><path class="cls-13" d="M139.76,139.76a1.77,1.77,0,0,1-1.84,1.9,2.11,2.11,0,0,1-1.82-2.16,1.78,1.78,0,0,1,1.82-1.9A2.11,2.11,0,0,1,139.76,139.76Z"/><path class="cls-14" d="M95.49,51.63v68.42c-1.46.14-2.89.28-4.29.44-5.78.6-11.18,1.25-16.24,2-3.17.42-6.2.88-9.11,1.35-8.28,1.33-15.48,2.8-21.71,4.37-25,6.33-34.25,14.47-34.25,23.35V83.09C9.89,69.7,30.84,58,95.49,51.63Z"/><g class="cls-15"><path class="cls-16" d="M85.82,66.1h0a2.12,2.12,0,0,1-1.9,2.1c-55.86,5.68-74,16-74,27.72V91.68C9.89,80,28,69.7,83.5,64A2.11,2.11,0,0,1,85.82,66.1Z"/><path class="cls-17" d="M85.82,74.64h0a2.12,2.12,0,0,1-1.9,2.1c-55.86,5.68-74,16-74,27.72v-4.24c0-11.71,18.08-22,73.61-27.67A2.11,2.11,0,0,1,85.82,74.64Z"/><path class="cls-18" d="M85.82,83.18h0a2.12,2.12,0,0,1-1.9,2.1c-55.86,5.68-74,16-74,27.72v-4.24c0-11.71,18.08-22,73.61-27.67A2.1,2.1,0,0,1,85.82,83.18Z"/><path class="cls-19" d="M85.82,91.72h0a2.11,2.11,0,0,1-1.9,2.09c-55.86,5.69-74,16-74,27.73V117.3c0-11.71,18.08-22,73.61-27.68A2.11,2.11,0,0,1,85.82,91.72Z"/><path class="cls-20" d="M85.82,100.26h0a2.11,2.11,0,0,1-1.9,2.09c-55.86,5.69-74,16-74,27.73v-4.24c0-11.71,18.08-22,73.61-27.68A2.11,2.11,0,0,1,85.82,100.26Z"/><path class="cls-21" d="M43.73,115.44a2,2,0,0,0-2.53-2c-22.92,5.65-31.31,13-31.31,20.94v4.24c0-8.09,8.63-15.5,32.27-21.18a2,2,0,0,0,1.57-2Z"/></g><path class="cls-8" d="M28.51,103.93v68.43c-11.74-5.88-18.62-13-18.62-20.67V83.26C9.89,90.93,16.77,98.05,28.51,103.93Z"/><path class="cls-22" d="M155.27,95.24a27.62,27.62,0,0,1-.17-5.3A33.51,33.51,0,0,1,155.27,95.24Z"/><path class="cls-22" d="M155.05,84.42a8.81,8.81,0,0,1-.17-3A10.64,10.64,0,0,1,155.05,84.42Z"/><path class="cls-23" d="M73.39,51.08A15.75,15.75,0,0,1,81,46.4c.6.16,1.08-.22,1.61-.35.23-.06.48-.1.6.14s0,.35-.16.51a1.34,1.34,0,0,1-.3.33c-3,2.25-3.92,5.48-4.17,9-.45,6.48-.51,13-.44,19.46,0,.83,0,1.67,0,2.5,0,4.51.09,9,0,13.54,0,3.82.14,7.65.3,11.46.27,6.37.37,12.74.78,19.1a143.16,143.16,0,0,0,1.44,14.32A17.48,17.48,0,0,0,83,143a9.19,9.19,0,0,0,6.11,4.05c1.64.37,3.32.61,5,1a27,27,0,0,0,4.58.42c3.78.28,7.57.3,11.36.27s7.43,0,11.14,0a187,187,0,0,0,19.08-1.16c.9-.09,1.77-.35,2.66-.46a16,16,0,0,0,5.06-1.74,6.43,6.43,0,0,0,1.78-1.33c.27-.3.57-.62,1.06-.45.55.77-.37,1.36-.27,2.07-1.31,3.58-4,5.64-7.44,7a33.32,33.32,0,0,1-6.06,1.57,8.87,8.87,0,0,1-3.18.55,65.47,65.47,0,0,1-9,.23c-9,0-18.08,0-27.12,0-3.38,0-6.74-.31-10.11-.27a12.68,12.68,0,0,1-4.65-.76,27.72,27.72,0,0,1-5.48-2.25c-3.33-2.06-5-5.2-5.79-8.87a6.6,6.6,0,0,0-.2-.63,17.81,17.81,0,0,1-.7-5c-.32-4.37-.45-8.75-.63-13.13-.15-3.78,0-7.57-.29-11.35-.06-1.92.12-3.85-.11-5.77q0-13.85,0-27.69c.23-1.75,0-3.5.11-5.26.16-3,.16-6.06.34-9.09a46,46,0,0,1,1.41-10.76A6.74,6.74,0,0,1,73.39,51.08Z"/><path class="cls-24" d="M103.19,157.47c.42.31.2,1.2.22,1.58a1.7,1.7,0,0,0-.07,1.31c.14.77-.12,1.19-1,1.25-1.12.07-2.23.31-3.34.44-.45,0-.84.19-.85.71-.07,3-.3,6,1.29,8.77a3.4,3.4,0,0,0,1.11,1.24,1.48,1.48,0,0,1,.81.89c-2.28,3.27-6.28,3.27-8.47,0-1.59-2.41-2.09-5.2-2.49-8a55.66,55.66,0,0,1-.29-7.08c0-.7.19-.92.89-.86l12.11.1Z"/><path class="cls-25" d="M125.76,174.79a4.42,4.42,0,0,1-6.43-1c-1.75-2.23-2.18-4.9-2.54-7.57a55.5,55.5,0,0,1-.36-7.74c0-.51.13-.66.61-.66,3.79-.05,7.57-.09,11.36-.17.64,0,.77.26.75.8,0,.79,0,1.58,0,2.36-1.43.67-3,.56-4.51.75-.4.06-.82,0-1.23.08a.89.89,0,0,0-.86,1.08,69.18,69.18,0,0,0,.83,7.46,6.31,6.31,0,0,0,1.86,3.38C125.55,173.91,126,174.19,125.76,174.79Z"/><path class="cls-26" d="M125.76,174.79c-.06-.78-.84-1-1.27-1.43-1.31-1.45-1.55-3.28-1.79-5.07-.27-2-.34-3.93-.52-5.9-.05-.58.12-.9.75-1,2.06-.18,4.12-.39,6.18-.6a35.74,35.74,0,0,1-.63,9.79A6.07,6.07,0,0,1,125.76,174.79Z"/><path class="cls-27" d="M101.39,173.66c-2.74-1.34-3.22-3.95-3.52-6.56a42.61,42.61,0,0,1,0-4.38c0-.64.2-.95.89-1,1.29-.1,2.58-.32,3.88-.42.78-.07.66-.53.58-1s-.49-.94.23-1.22c0,3.84.33,7.69-.61,11.47A8.65,8.65,0,0,1,101.39,173.66Z"/><path class="cls-28" d="M83.42,45.71a77.14,77.14,0,0,1,10.89-1.63,3.49,3.49,0,0,0,1.32-.18,43.41,43.41,0,0,1,5.34-.36c1.31-.08,2.63,0,3.94,0,4.34,0,8.67.18,13.2.37a1.58,1.58,0,0,1-1.64.74c-1.65,0-3.3,0-4.94.06-.32,0-1-.29-.91.54.31.86-.63.49-.84.87.17.37.55.33.86.39a3.54,3.54,0,0,1,1.81.85,1.85,1.85,0,0,0,1.53.57,2,2,0,0,1,2,1.09c.72,1.15,1.4,2.33,2.91,2.61a1,1,0,0,1,.54.39,49.71,49.71,0,0,0,4.45,4.38c.13.13.32.23.4.39.85,1.85,2.74,2.3,4.3,3.19a5.94,5.94,0,0,1,2.23,1.68.62.62,0,0,0,.33.29,10.37,10.37,0,0,1,3.84,2.16c.27.19.68.27.78.59.52,1.55,2,2.08,3.13,3a16.57,16.57,0,0,1,2.57,2.66c.19.22.4.54.1.79s-.5,0-.69-.22a25.81,25.81,0,0,0-2.36-2.08,13.32,13.32,0,0,0-8.41-3,20.43,20.43,0,0,0-5.78.69c-.4.13-.82.18-1.08.56a41.29,41.29,0,0,0-5.11,3.41.32.32,0,0,1-.49,0,.79.79,0,0,1,.34-.89,11.26,11.26,0,0,1,3.15-2.2,18.8,18.8,0,0,1-3.2,1.14,2.65,2.65,0,0,1-1,.13c-1.25-.16-2.47-.6-3.76-.24a1.19,1.19,0,0,1-1.07-.26c-1.07-1.07-2.47-1.14-3.83-1.4A5.31,5.31,0,0,1,104.73,63,4.53,4.53,0,0,0,101,59.61a2.26,2.26,0,0,1-1.92-1.32,29.34,29.34,0,0,0-2.14-3.41,2.16,2.16,0,0,0-.6,1.39A3.79,3.79,0,0,1,96,57.34c-.15.26-.29.56-.64.57s-.47-.31-.61-.57a6.05,6.05,0,0,1-.48-1.62,3,3,0,0,0-3.06-2.86,6.19,6.19,0,0,1-1.32-.27,1.93,1.93,0,0,1-1.55-1.72,4.26,4.26,0,0,0-1.62-3.21,1,1,0,0,1-.43-1.28c.25-.61-.1-.62-.55-.54s-.88.2-1.32.24S83.58,46.29,83.42,45.71Z"/><path class="cls-29" d="M83.42,45.71c.83.46,1.58-.16,2.37-.21.37,0,.82-.22,1.06.09s-.11.61-.3.88c-.39.53.09.81.38,1a3.9,3.9,0,0,1,1.67,3.33,1.5,1.5,0,0,0,1.28,1.49,7.16,7.16,0,0,0,1.41.32c2.2,0,3,1.4,3.33,3.22a9.43,9.43,0,0,0,.66,2c1-.71.54-2,1.14-2.82.15-.19,0-.58.31-.66s.4.35.54.57a31.17,31.17,0,0,1,2.25,3.72,1.47,1.47,0,0,0,1.63.73,1.85,1.85,0,0,1,2.28,1.12,1.26,1.26,0,0,0,.46.61,2.17,2.17,0,0,1,1.16,2.31.82.82,0,0,0,.14.52c1.28,1.27,2.3,3,4.49,2.74a2.5,2.5,0,0,1,2,.83,2,2,0,0,0,2.31.44,1.45,1.45,0,0,1,1.19.06,5.55,5.55,0,0,0,4.3-.31,13.38,13.38,0,0,1,2.45-.75c-1.15.86-2.4,1.55-3.47,2.49-.36.31-.83.55-.78,1.15a.52.52,0,0,1-.19.38c-.46.28-.65.91-1.25,1a2.17,2.17,0,0,0-1.75,1.22A7,7,0,0,1,112.92,75a1.19,1.19,0,0,1-1.43.27,50.15,50.15,0,0,0-2.82-4.18A15.57,15.57,0,0,0,98,65.8a19.55,19.55,0,0,0-4.58.31c-.18,0-.28.06-.27.25-.47.48-1.15.49-1.73.71a13.34,13.34,0,0,0-2.89,1.41A14.63,14.63,0,0,0,81.46,80.9c0,1.23.26,1.57,1.47,1.87.46.12.91.23,1,.72a28.15,28.15,0,0,0,1.55,4,.64.64,0,0,1,0,.54,1.24,1.24,0,0,1-.94.28,1.14,1.14,0,0,1-1.12-1.8,2.14,2.14,0,0,0-1.4-3,2.44,2.44,0,0,1-1.58-2.59,16.39,16.39,0,0,1,5.81-12,3.12,3.12,0,0,1-3.52.42c-.2-.07-.44-.28-.61-.06-.63.81-1.5.56-2.29.54-.62,0-.87.17-.92.8-.08,1.23-.46,2.42-.48,3.67,0,.44,0,1-.67,1.11,0-3.63-.18-7.27,0-10.89.23-3.83,0-7.69.81-11.48a10.59,10.59,0,0,1,3.77-6.17c.23-.19.54-.28.64-.66-.73-.24-1.35.71-2.08.2Z"/><path class="cls-30" d="M107.78,25.42l.9-.21c3.35-.27,3.56-.17,4.37,0,.54.14,1.1.2,1.64.33a1.55,1.55,0,0,1,1.18,1.1c1.19,4.08,3.2,7.85,4.65,11.83.24.67.55,1.32.77,2,.35,1,.12,1.39-1,1.4-2.82,0-5.63,0-8.45,0a11.87,11.87,0,0,0-2.23.12,1.94,1.94,0,0,1-.59,0c-1.16-.28-2.37.17-3.51-.3-.47-.54-.22-1.13-.12-1.71C106.26,35.15,107.31,30.33,107.78,25.42Z"/><path class="cls-31" d="M110.66,45.46a4.69,4.69,0,0,1-.65-.14c-.17-.06-.39-.11-.39-.34s.24-.37.46-.42a7.82,7.82,0,0,1,1.88-.25c1.9,0,3.8,0,5.7-.1-3.77-.06-7.52-.52-11.29-.37-.43,0-.91.15-1.3-.17.41-.37.92-.26,1.4-.25,5.5.12,11,0,16.51.23a85.44,85.44,0,0,1,13.83,1.22,21.25,21.25,0,0,1,4,1.06,23.46,23.46,0,0,1,5.72,2.83,12.34,12.34,0,0,1,4.28,8.59c.35,3.15.51,6.3.71,9.47q.25,4.22.46,8.43c.1,2,.23,3.93.19,5.91.25,1.3-.06,2.63.17,3.94l.07,8.54a.25.25,0,0,1-.37-.06c-.46-1.29-.15-2.62-.21-3.93-.33-10.67-.52-21.34-1.71-32a1.23,1.23,0,0,0-.37,1c.25,2.12.14,4.25.38,6.37a31.8,31.8,0,0,1,.33,5.16c0,.46.08,1-.48,1.27-.69-.94-.53-2.07-.61-3.12-.24-3.37-.56-6.72-.86-10.09-.06-.72-.22-1.08-1.06-1-3.19.45-7.29-3.4-6.31-7.26.24-.94-.15-1.2-.95-1.34-4.78-.79-9.57-1.44-14.4-1.75-3-.19-6-.61-9-.66a10.1,10.1,0,0,1-1.35-.1A5.87,5.87,0,0,0,113.6,46a10.94,10.94,0,0,1-1.51-.1C111.63,45.68,111.06,45.85,110.66,45.46Z"/><path class="cls-32" d="M107.78,25.42c.54.75.22,1.57.1,2.33-.72,4.4-1.42,8.8-2.36,13.17a3.66,3.66,0,0,0,0,.67.42.42,0,0,1-.43.36c-2-.16-4.06.29-6.09.22a3.39,3.39,0,0,1-1.1-.08c-.33,0-.46-.09-.28-.47,2.26-4.66,4.36-9.39,6.9-13.91A4.49,4.49,0,0,1,107.78,25.42Z"/><path class="cls-33" d="M109.56,41.79c.37-.28,1.07,0,1.47,0,3.15,0,6.24.19,9.38.21.9,0,1-.51.58-1.52-1.67-4-3.27-7.95-4.89-11.93a11.16,11.16,0,0,1-.39-1c-.49-1.76-1.17-2.05-2.66-2.29a17.08,17.08,0,0,0-4.37,0,17.68,17.68,0,0,1,4.82,0,5,5,0,0,1,4.15,2.66c2.31,4.68,4.53,9.39,6.55,14.2a10.68,10.68,0,0,1-3.43.11c-2.76-.15-5.52,0-8.28-.1A7.1,7.1,0,0,1,109.56,41.79Z"/><path class="cls-34" d="M143.15,147.32a18.37,18.37,0,0,1-4.81.87c-11.69,1.21-23.43,1-35.16.86a47.3,47.3,0,0,1-12-1.2c-1.19-.33-2.44-.43-3.62-.83-3.49-1.18-5.31-3.84-6.43-7.15a41.39,41.39,0,0,1-1.53-8.34c-.57-4.6-.75-9.23-1-13.86-.07-1.53-.12-3.07-.17-4.6-.18-5.35-.45-10.7-.51-16.06,0-1.79-.12-3.59-.14-5.38.48-.86.3-1.84.52-2.75.14-.59.34-1,1-1.16a1.11,1.11,0,0,1,1.37.67,3.57,3.57,0,0,0,1.41,1.42,3.21,3.21,0,0,1,1.49,2.26c.23,1.07.54,1.33,1.62,1.22a2.58,2.58,0,0,1,2.12.93A4.2,4.2,0,0,1,89,97.48c0,.65.68.85,1.2.76,1.3-.23,2.47.61,3.76.38a.55.55,0,0,1,.64.36c.11.85,1.12,1.33.88,2.34-.1.42.32.6.69.44a2.86,2.86,0,0,1,1.76,0c.45.08.75.23.85.73.14.77.89.93,1.39,1.36.67.58,1.1.17,1.65-.15a1.12,1.12,0,0,1,1.67,1.18c-.13.79.11.88.79.81,1.47-.13,2.64.2,2.93,2a5.44,5.44,0,0,0,.55,1.4.31.31,0,0,0,.36-.12,1.71,1.71,0,0,1,2.91-.18,18.36,18.36,0,0,1,2,2.16c.42.64.76.59,1.13-.08.58-1.08.78-1,1.45,0s.52,2.07,1.28,3a2.32,2.32,0,0,0,2.12,1c1.31-.13,1.68.14,2.16,1.41s1,2.15,2.41,2.27a1,1,0,0,1,.85.48c.42,1,1.29,1.15,2.2,1.25a1.91,1.91,0,0,1,1.71,1.56c.17.62.35,1.47.86,1.64a2.9,2.9,0,0,1,2.32,2c.11.38,1.21.34,1.34.87.25,1,1.09,1.5,1.53,2.3.08.13.1.37.22.38,1.6.06,1.74,1.78,2.8,2.45.17.1.35.28.3.45-.3.91.5,1.51.61,2.3a.66.66,0,0,0,.45.58c.25.1.56.25.53.52a2.85,2.85,0,0,0,1.27,2.37c.93.65,1.16,1.71,2,2.33a2.3,2.3,0,0,1,.95,2.26c-.13.93.21,1.43,1.15,1.54.4.06.8.2,1.2.28a1.15,1.15,0,0,1,1,1.2,1.28,1.28,0,0,1-.83,1.34C145,146.86,144,146.91,143.15,147.32Z"/><path class="cls-35" d="M143.15,147.32c.59-.69,1.49-.54,2.24-.78a1.37,1.37,0,0,0,1.12-1.46c0-.51-.31-.94-.82-.87s-1.12-.31-1.71-.37-1.12-.38-.89-1.31a2,2,0,0,0-1-2.56.9.9,0,0,1-.49-.71c-.1-.62-.21-1.24-1.1-1-.06,0-.14,0-.22,0,.25-1.17-1.31-1.46-1.23-2.54a3.29,3.29,0,0,0,0-.53c-1-.15-1-.94-1.32-1.68-.2-.52-.86-.85-.25-1.5,0-.05,0-.36-.12-.38a1.58,1.58,0,0,1-1.29-1.7c0-.12-.4-.28-.62-.4-.58-.29-1.67,0-1.4-1.25,0-.19-.29-.29-.53-.34-.56-.11-.93-.21-.64-1,.2-.57-.49-.9-1.06-1.05-1-.26-1.52-.79-.93-1.87-1.89.14-2.43-.25-2.82-2.13-.28-1.36-1.33-1.5-2.37-1.56a1.22,1.22,0,0,1-1.3-.92c-.38-1-1.52-.69-2.28-1.07-.12,0-.49.15-.48,0,0-.85-.67-1.37-.85-2.09A1.29,1.29,0,0,0,119.1,115a2.51,2.51,0,0,1-2.4-.89c-1.07-1.15-.77-2.84-1.94-3.91-.36.23-.34.67-.5,1-.35.76-.93.88-1.32.18a17.27,17.27,0,0,0-2.29-2.61,1.27,1.27,0,0,0-2.24.35c-.11.27-.24.49-.54.48a.54.54,0,0,1-.56-.59c0-1-.81-1.66-.91-2.61,0-.3-.38-.55-.55-.45-.75.49-1.48-.23-2.27.08s-.65-.56-.51-.84a.87.87,0,0,0-.29-1.3c-.58-.44-.87,0-1.25.29s-.55.38-.88.61c-.19-1-1.38-.73-1.77-1.48-.06-.11-.35-.15-.36-.24-.3-1.78-1.38-1.29-2.48-.92a.78.78,0,0,1-1-1c.29-.56.09-.71-.31-.93-.12-.07-.27-.22-.27-.33.07-1.44-.92-1-1.68-1a1,1,0,0,1-.83-.15,1.61,1.61,0,0,0-1.47-.25c-1.28.31-1.89-.24-1.92-1.56,0-.87,0-1.76-1.15-2-.24,0-.34-.27-.41-.5-.27-.89-.9-1-1.74-.87-1.14.24-1.72-.26-1.91-1.44a3.57,3.57,0,0,0-1.86-2.45,3.57,3.57,0,0,1-1.06-1.13c-.22-.33-.23-.78-.94-.62s-.74.43-.92,1c-.3.89.24,2-.8,2.69q0-6.87,0-13.73c.31-.06.37.19.43.39a3.92,3.92,0,0,1,.23,1.55,5.91,5.91,0,0,0,1.27,4.36c.43.6.6.43,1,.07s.57-1.13,1.36-1c1-.18,1.51.25,1.66,1.24a5.74,5.74,0,0,0,.39,1.26c.11.3.25.55-.2.68a.63.63,0,0,0-.44.88.93.93,0,0,0,1,.67c.32,0,.64-.2,1,0,.32-.06.49.17.63.38a13.73,13.73,0,0,0,7.51,5,1.29,1.29,0,0,1,.48.28A11.93,11.93,0,0,0,105,91.34a42.54,42.54,0,0,0,3.8-4.58,6.14,6.14,0,0,0,1.12-2.66,1.62,1.62,0,0,1,1.29-1.35c1.31-.36,1.62-.94,1.42-2.33a24.38,24.38,0,0,0-.91-4.15c-.12-.35-.3-.71-.07-1.08,1.44-.08,2-1.22,2.66-2.23.49-.77,1-1.38,2-1.16.16.52-.28.81-.47,1.19-.4.83-1.07,1.55-1,2.57-.3,1.3-.71,2.58-.9,3.92-.26,1.88-.11,2.22,1.69,2.88a1.41,1.41,0,0,1,.86,1.21,13.27,13.27,0,0,0,2.62,5.27,10.26,10.26,0,0,0,1.55,1.61c1.06,1,2.51,1.49,3.66,2.4a9,9,0,0,0,4.1,1c.75.05,1.5-.06,2.25.06.21,0,.48.09.46.38s-.24.29-.42.31a12.53,12.53,0,0,1-3,.41c-.35,0-.81-.21-.94.32a.75.75,0,0,0,.5.91c2,.51,3,2.72,5.26,2.79.51,0,.77.49.94,1a37.08,37.08,0,0,0,1.89,4.16c.7,1.43,2.18,2.31,2.47,3.91a11,11,0,0,0,2.12,4,1.81,1.81,0,0,0,1.31,1,2.29,2.29,0,0,1,1.55,1.15c.69,1,1.32,2.2,2.88,2a1,1,0,0,1,.86.47,3,3,0,0,0,2.15,1.27,2.31,2.31,0,0,1,1.86,1.61,3.78,3.78,0,0,0,.59,1.2c.27-1.82.31-3.53.42-5.24.09-1.42,0-2.84,0-4.27a1.73,1.73,0,0,1,.19-1c.24-.36.41-.2.53.11.14,4.82-.15,9.64-.09,14.46a3.86,3.86,0,0,0-.11,1.22c.07,4.71-.09,9.4-.45,14.09-.08,1.11-.48,2.17-.49,3.29,0,.14-.05.2-.17.24h-.23c-.8,0-1,.85-1.52,1.22A14,14,0,0,1,143.15,147.32Z"/><path class="cls-34" d="M82.05,83.3c-.83.29-1,1.28-1.71,1.68-.24.14-.41.4-.57,0-.4-1-1.17-1.78-1.6-2.7-.31-.66,0-1.63,0-2.48a5.92,5.92,0,0,0-.4-1.91V75.4c.78-1,.18-2.27.64-3.34a6.61,6.61,0,0,0,.22-1c.13-.54-.26-1.3.23-1.57s1.08,0,1.64,0c.74,0,1.59.2,1.44-1.47a2.62,2.62,0,0,0,2.69,1.34c.83,0,1.49-.9,2.56-.88a16.91,16.91,0,0,0-5.82,8.28,17.71,17.71,0,0,0-.65,4A2.5,2.5,0,0,0,82.05,83.3Z"/><path class="cls-36" d="M152.34,85.1a14.08,14.08,0,0,1-.17-3.94A19.21,19.21,0,0,1,152.34,85.1Z"/><path class="cls-37" d="M116.75,45.92a71.12,71.12,0,0,1,7.72.5c2.87.2,5.73.49,8.59.84,2.66.33,5.32.78,8,1.19.67.1.8.43.55,1.09-1.4,3.65,2.57,8,6.21,7.39a9.45,9.45,0,0,0,1-.29q.58,7.36,1.17,14.69a1.68,1.68,0,0,1,.36,1.16,58.48,58.48,0,0,1,.53,7.24,3.29,3.29,0,0,0-.26,1.94,21,21,0,0,1-.51,5.91,1.1,1.1,0,0,1-1,1c-.45,0-.61.24-.81.61-.34.62-.93.61-1.32,0a4,4,0,0,1-.66-2.67c.16-1.08.1-2.17.16-3.26a4.19,4.19,0,0,0-.77-3,1.14,1.14,0,0,1-.27-.73,8.18,8.18,0,0,0-1.62-4.93,16.26,16.26,0,0,1,1.64,5.94,1.84,1.84,0,0,1-.33,1.4c-.22.31-.49.63-.88.15C144.71,77,142.72,73,139,69.69c-4.11-3.66-8.89-4.41-14.11-3.06-.59.15-1.18.57-1.84.24.23-.45.23-.46.67-.58,6.44-1.86,12.2-.89,17,4.12a2.12,2.12,0,0,0,.72.52,24.44,24.44,0,0,0-2.75-3c-1.09-.87-2.81-1.21-3.1-3,0-.06-.07-.17-.12-.18-1.49-.27-2.05-2.09-3.65-2.2a1.57,1.57,0,0,1-1.51-1,1.54,1.54,0,0,0-.93-.78c-1.31-.58-2.39-1.61-3.86-1.88-.34-.06-.53-.39-.69-.69a14.68,14.68,0,0,0-2.83-3c-.84-.89-2-1.47-2.59-2.61-.17-.35-.39-.7-.78-.74-1.61-.2-2.24-1.47-2.94-2.64a1.55,1.55,0,0,0-1.82-1,1.37,1.37,0,0,1-1.42-.45,3.24,3.24,0,0,0-2.16-1c-.43-.06-1.15-.06-1.13-.69s.72-.25,1.09-.4a2.81,2.81,0,0,0,.39-.19,2.21,2.21,0,0,1,1.41.18l-.08.08c-.1.07-.11.09,0,.07a7.41,7.41,0,0,0,1.63-.1,3.57,3.57,0,0,1,1.86.18c-.14.2-.38.06-.63.19C115.51,45.91,116.14,46.13,116.75,45.92Z"/><path class="cls-38" d="M123.09,66.87c3.47-1.2,7-1.74,10.57-.53a15.29,15.29,0,0,1,10.85,12.78c.16,1,.52,2-.24,2.87-.09.17-.21.36-.39.38-1.31.15-1.52,1.12-1.83,2.17a12.23,12.23,0,0,1-3.5,5.9,2.72,2.72,0,0,1-1,.69c-1.26.49-2.28,1.44-3.59,1.84a13.27,13.27,0,0,1-10.07-.39c-1.15-.55-2.13-1.33-3.27-1.89a12.24,12.24,0,0,1-4.33-7c-.17-.71-.37-1.16-1.26-1.17s-1.44-.63-1.43-1.64a16.8,16.8,0,0,1,1.09-5.47,10.35,10.35,0,0,1,2.85-4.69l.16-.18A19.22,19.22,0,0,1,123.09,66.87Z"/><path class="cls-39" d="M94,93.88a21.89,21.89,0,0,1-5.7-2.8,16.67,16.67,0,0,1-2.84-3,20.86,20.86,0,0,1-1.7-4.58c-.08-.49-.47-.37-.79-.41-1.49-.2-1.87-.6-1.82-2.12a14.88,14.88,0,0,1,7.22-12.69c1.52-.5,2.92-1.27,4.46-1.75a15,15,0,0,1,8.69.06A21.59,21.59,0,0,1,106,68.65a12.78,12.78,0,0,1,4.65,5,17.16,17.16,0,0,1,2.06,6.7c.21,1.77,0,2.16-1.76,2.59a1,1,0,0,0-.9,1,7.58,7.58,0,0,1-1.17,3,17.37,17.37,0,0,1-3.59,4.41A12.89,12.89,0,0,1,94,93.88Z"/><path class="cls-28" d="M108.85,86.88A19.72,19.72,0,0,0,110,83.29c.06-.54.4-.41.71-.47,1.82-.36,1.94-.41,1.79-2.28a15,15,0,0,0-6.41-11.67,17.53,17.53,0,0,0-6.91-2.72,23.36,23.36,0,0,0-4.58,0c-.47,0-1,.28-1.43,0-.17-.06-.59-.13,0-.26A15.53,15.53,0,0,1,106,68.35a16.3,16.3,0,0,1,5.6,6.84,22.46,22.46,0,0,1,1.31,5.42c.2,1.46-.25,2.1-1.77,2.46a1.06,1.06,0,0,0-1,1A4.25,4.25,0,0,1,108.85,86.88Z"/><path class="cls-40" d="M93.16,66.2c3.12-.46,6.22-.59,9.24.63a11.87,11.87,0,0,1,3.68,2,1.5,1.5,0,0,1-.94-.31,14.78,14.78,0,0,0-8.6-2.39,15.6,15.6,0,0,0-7,1.76c-.34.18-.67.66-1.18.3A17,17,0,0,1,93.16,66.2Z"/><path class="cls-28" d="M117.53,70.71a19.87,19.87,0,0,0-2.85,4.69c-.31-1,.5-1.55.79-2.3a7.08,7.08,0,0,1,.85-1.3C116.72,71.44,116.9,70.82,117.53,70.71Z"/><path class="cls-41" d="M137.48,90.9a11.17,11.17,0,0,0,4.35-6.72c.29-1.1.54-2,1.92-2,.17,0,.35-.13.52-.2.69-.09,1-.74.84-1.7a20.64,20.64,0,0,0-1.88-6.5,6.64,6.64,0,0,1,2.13,3.29c.22.73.64,1.44.27,2.26a.66.66,0,0,0,.24.71,3.08,3.08,0,0,1,.85,2.57,18.57,18.57,0,0,1-.19,3.87,4.42,4.42,0,0,0,.58,2.48.54.54,0,0,0,.6.4c.36-.05.36-.29.32-.58s.11-.91.56-.67c1,.55,1.22-.3,1.25-.8.11-2.07.87-4.11.31-6.22a.91.91,0,0,1,.41-1.17c.58,1.09.41,2.31.54,3.47a33.47,33.47,0,0,1,.27,4.9,1.28,1.28,0,0,0,.76,1.35c0,1.34,0,2.68,0,4q0,8.24,0,16.47c-.25.19-.22.46-.22.72,0,2.81,0,5.62-.22,8.42a7.1,7.1,0,0,1-.61,2.43,16.2,16.2,0,0,1-.62-1.64,2.48,2.48,0,0,0-2.41-2c-.33,0-.85,0-.94-.23a2,2,0,0,0-2.7-1.24c-.4-.93-1.6-1.27-1.86-2.19A1.44,1.44,0,0,0,141,113.3a1.19,1.19,0,0,1-1.06-.65c-.63-1-1.43-1.87-2-2.89-.41-.74-.27-1.7-.76-2.47-.24-.38-.33-.82-.82-1a1,1,0,0,1-.7-.7c-.27-1.3-1.39-2.16-1.78-3.33a6.32,6.32,0,0,1-.68-2c0-.85-.57-1-1.15-1.11a4.11,4.11,0,0,1-3.17-1.83,1.3,1.3,0,0,0-1-.49,4.23,4.23,0,0,1-1-.37c-.61-.33-.47-1-.52-1.52,0-.36.45-.43.72-.33,1.33.48,2.53-.36,3.82-.37a20.51,20.51,0,0,1-5.47-.56c-.45-.15-1-.15-1.3-.56,0,0,0-.07,0-.09a.22.22,0,0,1,.09-.07c1.14,0,2.17.63,3.31.66a18.69,18.69,0,0,0,3.26,0A14.78,14.78,0,0,0,137.48,90.9Z"/><path class="cls-36" d="M152.13,89.65c-1.15.52-1-.44-1.07-1-.1-1.37,0-2.75-.22-4.13s-.2-3.06-.28-4.58q-.3-3.57-.59-7.14c0-.48,0-1-.05-1.46.33-.3.2-.7.2-1.06a82.79,82.79,0,0,0-.64-8.47,3.73,3.73,0,0,1,.06-1.45,2,2,0,0,0,.11-.76,3.45,3.45,0,0,1,.56-2.93,8.75,8.75,0,0,1,.53,3.58c.17,2.52.39,5.05.55,7.58.4,6,.65,11.94.68,17.92C152,87,152.19,88.34,152.13,89.65Z"/><path class="cls-28" d="M113.59,45.69c-.64.4-1.32.12-2,.19.12-.3.35-.18.5-.24Z"/><path class="cls-28" d="M116.75,45.92c-.65.39-1.33.13-2,.18.23-.32.52-.15.75-.23Z"/><path class="cls-42" d="M125.36,125.89a11.94,11.94,0,0,1,.37,9.6c-2.51,6-10.07,8.72-16.1,5.74-4.16-2-6.63-5.37-6.84-10-.22-4.94,2-8.63,6.32-11.06l.47-.29a7.23,7.23,0,0,1,3.63-1.15h2a12.37,12.37,0,0,1,9.49,5.79A2.87,2.87,0,0,1,125.36,125.89Z"/><path class="cls-35" d="M125.36,125.89a12.34,12.34,0,0,0-10-7,9.08,9.08,0,0,0-2.21,0,11.54,11.54,0,0,0-3.6,1c0-.61.59-.55.93-.67a12.16,12.16,0,0,1,13.68,4.24C124.72,124.16,125.52,124.81,125.36,125.89Z"/><path class="cls-43" d="M127.6,93.71a10.39,10.39,0,0,1-3.3-.77,13.44,13.44,0,0,1-3.69-2.25c.23-.25.4-.06.57.07,4,3,8.46,3.42,13.13,1.75a10.34,10.34,0,0,0,2.52-1.44c.2-.14.35-.45.65-.17A12.13,12.13,0,0,1,131,93.71,17,17,0,0,1,127.6,93.71Z"/><path class="cls-44" d="M94,93.88a24.33,24.33,0,0,0,5.26.05,13.88,13.88,0,0,0,6-2.64c-1.07,1.53-2.77,2-4.39,2.59s-3.46.41-5.19.58c-.51.05-1.07-.4-1.67-.39,0,0-.05,0-.05-.09A.21.21,0,0,1,94,93.88Z"/><path class="cls-34" d="M80.06,86.28c.41,0,.39.28.47.51s.06.64-.3.69-.45-.33-.51-.61A.49.49,0,0,1,80.06,86.28Z"/><path class="cls-34" d="M92.27,93.63c-.68,0-1.47.21-1.9-.8Z"/><path class="cls-45" d="M120.34,70c3.73-3.35,10.69-4.13,15.14-1.7a.8.8,0,0,1,.12.9c-.71,1.58-.07,2.82,1.05,3.92s2.34,1.8,3.92,1.19c.77-.29,1,.1,1.26.66a15.27,15.27,0,0,1,1.19,4.4c0,1.22-.12,1.31-1.38,1.31-5.35,0-10.7,0-16,0a15.29,15.29,0,0,0-1.79,0,11.17,11.17,0,0,1-3.77-.15c1.45-.53,1.07-1.15.67-1.93A9.49,9.49,0,0,1,120.34,70Z"/><path class="cls-46" d="M136.86,84.41c.41-.58-.3-1.55.44-1.87a5.32,5.32,0,0,1,2-.06h1.56a11.22,11.22,0,0,1-8.37,9.32c-4.08.81-8,.27-11.27-2.51a11.87,11.87,0,0,1-3.71-5.86c-.11-.37-.25-.81.47-.8,3.66,0,7.31,0,11,0,.24.3.1.64.08,1-.13,2.16.79,3.6,2.58,4a4,4,0,0,0,4.74-2.27C136.5,85.05,136.51,84.64,136.86,84.41Z"/><path class="cls-47" d="M120.34,70c.25,0,.46.08.28.41-1.68,3.22-.73,6.2.89,9.1.13.23.22.47.33.7-.38.34-.84,0-1.37.38h3.08a57.39,57.39,0,0,1,6-.09,31.59,31.59,0,0,1,4.35.07c-.13.67-.67.34-1,.35q-8,0-15.94,0a4.81,4.81,0,0,1-1.56,0c-.17,0-.37-.1-.35-.34a14,14,0,0,1,4.79-10.26A2.87,2.87,0,0,1,120.34,70Z"/><path class="cls-48" d="M136.86,84.41a3.73,3.73,0,0,1-2.6,3.41A4.11,4.11,0,0,1,129.8,87a3.94,3.94,0,0,1-.85-4.33c2.22-.14,4.46.14,6.67-.23,1-.17,1.36.25,1.21,1.22A5,5,0,0,0,136.86,84.41Z"/><path class="cls-49" d="M142.92,79a31.84,31.84,0,0,0-1.21-3.93c-.27-.57-.47-1-1.18-.37s-1.39.07-2,0c-1.91-.32-3.69-3-3.51-4.88.06-.57.79-.86.49-1.5A13.43,13.43,0,0,1,143.09,79C143,79.12,143,79.12,142.92,79Z"/><path class="cls-50" d="M115.42,80.88l17.08-.13a3.06,3.06,0,0,0,1.44-.13,24.52,24.52,0,0,1,4.77-.11,16.87,16.87,0,0,1,4.2.13c-.2.66-.75.38-1.14.39l-24.19,0a4.66,4.66,0,0,0-1.89.16C115.39,81.34,115.27,81.19,115.42,80.88Z"/><path class="cls-51" d="M142.91,80.64l-9,0-10.39,0c.35-.34.78-.19,1.18-.19,5.61,0,11.23-.07,16.84,0,1.11,0,1.48-.34,1.35-1.37h.17C143,79.56,143.58,80.17,142.91,80.64Z"/><path class="cls-52" d="M88.11,70a11.49,11.49,0,0,1,6.38-2.78,14,14,0,0,1,8.13,1c.57.31.89.65.37,1.32a1.72,1.72,0,0,0,.11,2A6.08,6.08,0,0,0,105.57,74a2.18,2.18,0,0,0,2.7,0,.73.73,0,0,1,.83-.12,14.88,14.88,0,0,1,2,7.06c-.25.45-.67.22-1,.23-1.69,0-3.38,0-5.07,0-5.86-.07-11.71.16-17.56.12a10.9,10.9,0,0,1-3-.19c.3-.62.8-.55,1.22-.57.82,0,1.65,0,2.48,0,.64,0,.93-.16.59-.86a14.11,14.11,0,0,1-1.22-6.79A14.31,14.31,0,0,1,88.11,70Z"/><path class="cls-53" d="M108.63,82.86l.06.26a5.32,5.32,0,0,1-1.16,3.32,11.39,11.39,0,0,1-8.09,5.75c-6.64,1-12.8-2.33-14.45-9.3h7.29a29.38,29.38,0,0,1,4.78-.14c.34,0,.45.23.47.52s0,.6,0,.9a3.49,3.49,0,0,0,3.59,4,3.83,3.83,0,0,0,4.07-3.51c.2-1.9.2-1.91,2.16-1.89A2.47,2.47,0,0,1,108.63,82.86Z"/><path class="cls-54" d="M88.11,70c.27,0,.36.13.27.44a12.39,12.39,0,0,0,1,9.56c.4.79.22.85-.51.84a18.34,18.34,0,0,0-4,.26h2.49a.3.3,0,0,1-.3.28,31.78,31.78,0,0,1-4.25-.09,10,10,0,0,1,.68-4.89,11.54,11.54,0,0,1,2.69-4.59c.79-.48,1.28-1.29,2-1.81Z"/><path class="cls-55" d="M108.63,82.86h-.56c-.79,0-1.72-.26-2.32.07s-.13,1.37-.26,2.08a4.29,4.29,0,0,1-5.19,3.36c-2.17-.35-3.8-2.53-2.9-5.49H85.46v-.26c1.48,0,3,.05,4.44,0,4.45-.15,8.89.27,13.34.24a35.28,35.28,0,0,1,4.36-.23C108,82.67,108.36,82.47,108.63,82.86Z"/><path class="cls-56" d="M109.1,73.86c-.73.1-1,1-1.92.91a5.1,5.1,0,0,1-3.79-2.33c-.76-1-1.61-2.15-.39-3.5.41-.46-.32-.39-.48-.6,0,0,0-.08,0-.11a.5.5,0,0,1,.08-.07A12.72,12.72,0,0,1,109.1,73.86Z"/><path class="cls-57" d="M82.74,81.28a40.63,40.63,0,0,0,4.55-.19l23.4-.08a2.29,2.29,0,0,0,.44-.09c-.18.48-.61.35-1,.36-1.16,0-2.32,0-3.48,0-7.56-.15-15.11.35-22.67.21C83.59,81.48,83.12,81.66,82.74,81.28Z"/><path class="cls-55" d="M107.53,86.44a13.92,13.92,0,0,0,1.16-3.32A3.6,3.6,0,0,1,107.53,86.44Z"/><path class="cls-52" d="M88.14,70c-.6.69-1.08,1.52-2,1.81A6.08,6.08,0,0,1,88.14,70Z"/><path class="cls-35" d="M127.6,93.71H131A6.35,6.35,0,0,1,127.6,93.71Z"/><path class="cls-58" d="M107.3,123.65a9.28,9.28,0,0,1,12-2.16c.07.29.59.38.43.71s-.59.15-.9.08c-.55-.13-1.16-.33-1.54.25a1.38,1.38,0,0,0,.28,1.75,5.41,5.41,0,0,0,3.52,2c.57,0,1.06-.07,1-.83,0-.31-.22-.78.19-.88s.57.38.77.69a.67.67,0,0,0,.26.21,9.26,9.26,0,0,1-2.71,13.06c-.21.05-.45-.07-.65.06-2,1.2-4,.37-5.87-.09a9.23,9.23,0,0,1-5-3.21c-2.76-3.37-3.59-7.08-1.84-11.2A3.48,3.48,0,0,0,107.3,123.65Z"/><path class="cls-59" d="M107.3,123.65c.18.14.53.1.25.57-1.82,3-.84,7.64,1.15,10.21a11.32,11.32,0,0,0,8.46,4.37,3.4,3.4,0,0,0,2.52-.44c.25-.18.72-.48.91.17a9.29,9.29,0,0,1-7.85,1.11,10.11,10.11,0,0,1-7.9-10.6A8,8,0,0,1,107.3,123.65Z"/><path class="cls-60" d="M123.3,125.47c-.61.12-.44-.71-1-.73,0,0-.09.06-.08.1.34,1.6-.13,2.12-1.75,1.69a6.07,6.07,0,0,1-3.45-2.36,1.61,1.61,0,0,1,0-2c.47-.59,1.16-.38,1.77-.22a5.06,5.06,0,0,1,.77.33c-.13-.34-.21-.57-.3-.8A9.32,9.32,0,0,1,123.3,125.47Z"/><path class="cls-34" d="M113.18,118.85a3.17,3.17,0,0,1,2.21,0Z"/><path class="cls-61" d="M116.76,132.88a5.74,5.74,0,0,1-2.09.7c-2.11.13-3.55-1.44-3.5-3.79a3,3,0,0,1,2.59-2.93,3.77,3.77,0,0,1,3.75,1.44,3.46,3.46,0,0,1,0,4A1.55,1.55,0,0,1,116.76,132.88Z"/><path class="cls-62" d="M116.76,132.88A3.3,3.3,0,0,0,115,127.1c-1.69-.28-3.08.69-3.82,2.69-.32-.66-.21-.1-.28.09-.14.4.36,1.17-.3,1.17s-.36-.8-.34-1.24c.06-1.54.54-2.88,2.12-3.5a4.74,4.74,0,0,1,5,.59c.49.39,1,.81,1.45,1.23a3,3,0,0,1,1.18,3.16,3.24,3.24,0,0,1-3.3,2.74c-.23.08-.33-.06-.42-.23s-.49,0-.11-.22S116.92,133.37,116.76,132.88Z"/><path class="cls-63" d="M116.33,133.8l.42.23c0,.71.33,1.63-.63,1.93a2.39,2.39,0,0,1-2.78-.5c-.18-.22-.42-.41-.28-.78a.69.69,0,0,1,.79-.45A4.25,4.25,0,0,0,116.33,133.8Z"/><path class="cls-64" d="M146.42,48.81a18.74,18.74,0,0,1,6.37,12.69c1.2,14,.41,46.37.41,46.37s.62,22.4-.53,34.58c-.64,6.85-7.4,10.33-13.19,12.06a56.57,56.57,0,0,1-13.81,2l-38.49-.4c-14.52-.71-16.49-11.23-17-15s-1.51-50.61-1.51-50.61.13-22.45,1.44-29.87,2.26-14.49,16-16.47,29.15-2,46.66-.73A22.89,22.89,0,0,1,146.42,48.81Z"/><path class="cls-64" d="M96.11,42.65l7.51-15.15s1.45-3.78,7.47-3.52c5.41.24,6,1.2,7.16,2.49s7.49,15.75,7.49,15.75"/><path class="cls-64" d="M88.77,157.47s-.91,19.72,7.89,20c8.47.27,8.23-13.07,8.23-13.07V157.7"/><path class="cls-64" d="M115.09,157.47s-1.24,19.47,7.56,19.74c8.46.26,7.95-12.78,7.95-12.78l0-7.52"/><path class="cls-65" d="M67.5,68.77l6.12-3.64a.35.35,0,0,1,.53.3l-.08,23.89a.35.35,0,0,1-.46.33l-6.43-2.09a.34.34,0,0,1-.24-.34l.38-18.15A.36.36,0,0,1,67.5,68.77Z"/><path class="cls-66" d="M74.23,64.82l80.87,1a.08.08,0,0,1,.07.08V96.28s-.33,16.59-13.06,18.31c-10.58,1.43-15.15-8.86-16.77-14.06a4.08,4.08,0,0,0-3.9-2.9H105.73a3.52,3.52,0,0,0-3.42,2.71l-.93,3.94A13.82,13.82,0,0,1,89.5,115c-4.42.44-9.37-1.11-12.93-8A23.77,23.77,0,0,1,74.05,96l.1-31.12A.07.07,0,0,1,74.23,64.82Z"/><line class="cls-66" x1="96.63" y1="70.39" x2="136.25" y2="71.02"/><line class="cls-66" x1="80.92" y1="83.64" x2="88.14" y2="83.64"/><line class="cls-66" x1="80.92" y1="88.41" x2="88.14" y2="88.41"/></g></g></g></svg>